<?xml version="1.0" encoding="utf-8"?>
<!-- Generator: Adobe Illustrator 27.5.0, SVG Export Plug-In . SVG Version: 6.00 Build 0)  -->
<svg version="1.1" id="Ñëîé_1" xmlns="http://www.w3.org/2000/svg" xmlns:xlink="http://www.w3.org/1999/xlink" x="0px" y="0px"
	 viewBox="0 0 2600 2000" style="enable-background:new 0 0 2600 2000;" xml:space="preserve">
<rect id="_x31_1" style="fill:#FFFFFF;" width="2600" height="2000"/>
<g>
	<g id="_x31_0">
		<path style="fill:#DCE6FF;" d="M335.72,1580.375c-4.585-14.051-9.122-28.609-13.484-43.271l10.75-3.197
			c4.334,14.567,8.84,29.031,13.396,42.988L335.72,1580.375z M2258.821,1562.23l-11.13-1.374c1.848-14.957,3.603-30.02,5.216-44.77
			l11.148,1.22C2262.437,1532.108,2260.675,1547.223,2258.821,1562.23z M309.855,1493.518c-3.926-14.49-7.732-29.25-11.315-43.87
			l10.893-2.67c3.562,14.531,7.345,29.203,11.247,43.606L309.855,1493.518z M2268.647,1472.307l-11.164-1.055
			c1.419-15.017,2.733-30.122,3.905-44.896l11.179,0.886C2271.391,1442.072,2270.072,1457.234,2268.647,1472.307z M288.293,1405.521
			c-3.239-14.763-6.321-29.69-9.161-44.368l11.011-2.129c2.822,14.587,5.885,29.422,9.104,44.094L288.293,1405.521z
			 M2275.786,1382.115l-11.193-0.708c0.949-15.006,1.782-30.143,2.474-44.989l11.202,0.522
			C2277.575,1351.848,2276.74,1367.046,2275.786,1382.115z M271.095,1316.564c-2.494-14.944-4.803-30.012-6.862-44.789l11.107-1.548
			c2.046,14.677,4.34,29.646,6.817,44.491L271.095,1316.564z M2279.982,1291.724l-11.211-0.326
			c0.438-15.073,0.739-30.226,0.896-45.039l11.215,0.118C2280.725,1261.359,2280.422,1276.582,2279.982,1291.724z M258.604,1226.805
			c-1.672-15.094-3.127-30.275-4.326-45.12l11.179-0.903c1.19,14.736,2.634,29.804,4.294,44.788L258.604,1226.805z
			 M2269.714,1201.317c-0.132-15.085-0.418-30.232-0.852-45.025l11.211-0.328c0.435,14.869,0.723,30.094,0.856,45.254
			L2269.714,1201.317z M251.338,1136.446c-0.744-15.183-1.237-30.426-1.466-45.307l11.214-0.173
			c0.227,14.757,0.716,29.874,1.454,44.932L251.338,1136.446z M2267.06,1111.307c-0.77-15.064-1.717-30.179-2.813-44.926
			l11.183-0.832c1.104,14.832,2.055,30.035,2.83,45.185L2267.06,1111.307z M261.192,1046.016l-11.213-0.231
			c0.312-15.223,0.914-30.471,1.79-45.319l11.196,0.66C262.098,1015.833,261.501,1030.935,261.192,1046.016z M2260.356,1021.546
			c-1.498-15.061-3.195-30.104-5.042-44.712l11.126-1.407c1.86,14.706,3.567,29.849,5.076,45.009L2260.356,1021.546z
			 M266.522,956.356l-11.159-1.121c1.523-15.166,3.381-30.324,5.521-45.054l11.099,1.612
			C269.865,926.361,268.028,941.354,266.522,956.356z M2249.035,932.293c-2.333-14.966-4.895-29.876-7.613-44.316l11.021-2.075
			c2.741,14.554,5.323,29.581,7.675,44.664L2249.035,932.293z M922.66,930.71c-15.584-2.457-26.856-9.551-42.47-21.801l7.089-8.69
			c13.679,10.703,23.558,17.124,36.576,19.34L922.66,930.71z M961.57,904.028l-9.988-5.101c5.134-10.053,9.672-24.004,13.49-41.464
			l10.956,2.395C971.949,878.517,967.219,892.965,961.57,904.028z M847.275,876.744c-8.934-9.949-18.482-21.399-29.188-35.005
			l8.813-6.935c10.555,13.413,19.95,24.681,28.72,34.448L847.275,876.744z M279.472,867.546l-11.01-2.137
			c2.905-14.969,6.193-29.895,9.771-44.363l10.887,2.693C285.587,838.024,282.341,852.763,279.472,867.546z M2232.357,843.953
			c-3.321-14.812-6.904-29.497-10.648-43.645l10.843-2.869c3.781,14.286,7.396,29.111,10.748,44.062L2232.357,843.953z
			 M983.574,814.722l-11.123-1.431c1.722-13.387,3.266-28.045,4.719-44.816l11.173,0.968
			C986.876,786.37,985.316,801.18,983.574,814.722z M790.619,805.607c-9.116-12.311-18.572-25.325-26.719-36.556l9.078-6.585
			c8.132,11.21,17.568,24.197,26.654,36.468L790.619,805.607z M1611.696,804.684c-8.734,0-17.304-2.609-25.47-7.755l5.98-9.489
			c12.268,7.744,24.336,7.761,37.367,1.585l4.825,10.123C1626.692,802.822,1619.055,804.684,1611.696,804.684z M301.05,780.521
			l-10.725-3.279c4.456-14.572,9.345-29.064,14.531-43.075l10.517,3.893C310.262,751.868,305.443,766.154,301.05,780.521z
			 M1671.07,769.829l-8.24-7.608c8.503-9.21,17.619-20.569,27.867-34.73l9.086,6.576
			C1689.27,748.591,1679.879,760.289,1671.07,769.829z M1554.337,762.117c-7.258-11.196-14.45-24.382-21.988-40.309l10.137-4.798
			c7.323,15.473,14.278,28.232,21.263,39.007L1554.337,762.117z M2209.319,757.152c-4.518-14.531-9.339-28.835-14.329-42.516
			l10.536-3.843c5.051,13.849,9.93,28.326,14.502,43.029L2209.319,757.152z M737.321,732.488
			c-10.261-14.022-18.812-25.535-26.911-36.229l8.941-6.77c8.137,10.745,16.723,22.304,27.021,36.378L737.321,732.488z
			 M991.717,724.153l-11.192-0.724c0.85-13.14,1.715-27.908,2.644-45.149l11.199,0.604
			C993.437,696.165,992.57,710.972,991.717,724.153z M332.184,696.545l-10.26-4.528c6.156-13.943,12.717-27.635,19.689-41.025
			l9.945,5.185C344.697,669.35,338.243,682.823,332.184,696.545z M1725.476,696.542l-9.371-6.162
			c7.97-12.116,16.202-24.954,24.535-37.922l9.435,6.063C1741.722,671.522,1733.48,684.371,1725.476,696.542z M1514.296,679.956
			c-5.08-12.742-10.329-26.643-16.048-42.499l10.549-3.805c5.677,15.737,10.883,29.525,15.916,42.151L1514.296,679.956z
			 M2178.492,672.962c-6.029-14.045-12.407-27.688-18.957-40.55l9.995-5.089c6.66,13.079,13.143,26.945,19.268,41.214
			L2178.492,672.962z M682.72,660.722c-10.176-12.632-19.648-23.874-28.958-34.37l8.39-7.442
			c9.428,10.63,19.013,22.005,29.302,34.776L682.72,660.722z M996.702,633.644l-11.201-0.565
			c0.756-14.983,1.506-29.973,2.307-45.227l11.2,0.588C998.207,603.685,997.456,618.668,996.702,633.644z M1774.662,620.643
			l-9.356-6.184c9.37-14.178,17.751-26.443,25.622-37.494l9.134,6.506C1792.268,594.414,1783.959,606.573,1774.662,620.643z
			 M373.798,617.477l-9.453-6.036c8.813-13.802,17.9-26.268,27.008-37.05l8.568,7.237
			C391.133,592.032,382.344,604.093,373.798,617.477z M1483.274,594.661c-5.143-15.072-10.19-30.152-14.447-42.916l10.639-3.548
			c4.252,12.746,9.29,27.802,14.423,42.842L1483.274,594.661z M622.926,593.876c-11.462-11.16-22.734-21.019-33.499-29.303
			l6.839-8.888c11.109,8.548,22.711,18.693,34.483,30.155L622.926,593.876z M2137.76,593.397
			c-8.036-13.113-16.462-25.516-25.044-36.862l8.944-6.765c8.802,11.637,17.436,24.344,25.661,37.767L2137.76,593.397z
			 M431.378,551.117l-6.802-8.917c13.393-10.216,27.332-17.584,41.429-21.898l3.282,10.724
			C456.464,534.95,443.71,541.709,431.378,551.117z M1827.112,547.687l-8.712-7.061c10.517-12.977,20.484-24.144,30.468-34.138
			l7.933,7.926C1847.095,524.13,1837.383,535.014,1827.112,547.687z M1001.52,543.277l-11.195-0.667
			c0.971-16.301,1.935-31.105,2.948-45.257l11.187,0.8C1003.45,512.26,1002.489,527.021,1001.52,543.277z M552.349,540.929
			c-13.995-6.964-27.76-11.409-40.912-13.211l1.522-11.111c14.364,1.969,29.298,6.773,44.386,14.282L552.349,540.929z
			 M2083.866,522.8c-10.796-11.062-21.976-20.826-33.226-29.02l6.604-9.065c11.756,8.563,23.414,18.741,34.649,30.252
			L2083.866,522.8z M1454.521,508.831c-5.579-16.686-10.177-30.292-14.469-42.818l10.608-3.636
			c4.303,12.553,8.909,26.184,14.497,42.897L1454.521,508.831z M1890.366,485.786l-6.428-9.189
			c13.792-9.649,27.724-16.796,41.407-21.24l3.464,10.666C1916.183,470.124,1903.249,476.773,1890.366,485.786z M2012.735,472.047
			c-13.89-5.859-27.95-9.484-41.789-10.777l1.042-11.166c14.982,1.4,30.157,5.306,45.104,11.61L2012.735,472.047z M1008.047,453.128
			l-11.171-0.992c1.398-15.735,2.918-30.932,4.519-45.168l11.145,1.254C1010.948,422.371,1009.437,437.479,1008.047,453.128z
			 M1425.13,423.358c-5.419-15.126-10.526-28.953-15.613-42.27l10.477-4.002c5.115,13.39,10.248,27.289,15.693,42.489
			L1425.13,423.358z M1018.25,363.503l-11.1-1.604c2.268-15.702,4.762-30.802,7.411-44.881l11.022,2.073
			C1022.963,333.015,1020.495,347.957,1018.25,363.503z M1392.857,339.215c-6.026-14.495-12.1-28.364-18.055-41.22l10.177-4.713
			c6.017,12.99,12.152,26.996,18.235,41.628L1392.857,339.215z M1035.106,275.205l-10.881-2.718
			c3.912-15.661,8.224-30.412,12.817-43.844l10.611,3.628C1043.163,245.405,1038.941,259.85,1035.106,275.205z M1354.884,257.746
			c-7.376-13.892-14.911-26.933-22.395-38.761l9.477-5.997c7.635,12.068,15.314,25.356,22.824,39.498L1354.884,257.746z
			 M1064.497,191.182l-10.057-4.964c7.364-14.921,15.53-28.113,24.272-39.213l8.81,6.94
			C1079.262,164.433,1071.516,176.961,1064.497,191.182z M1306.785,182.611c-9.799-12.285-19.914-23.167-30.062-32.344l7.523-8.318
			c10.597,9.583,21.13,20.911,31.307,33.668L1306.785,182.611z M1118.811,124.878l-6.046-9.446
			c13.286-8.503,27.923-14.032,43.506-16.432l1.707,11.084C1143.95,112.245,1130.772,117.223,1118.811,124.878z M1241.338,124.871
			c-13.064-7.043-26.673-11.858-40.448-14.311l1.966-11.042c14.951,2.663,29.688,7.871,43.803,15.48L1241.338,124.871z"/>
		<path style="fill:#D4E8FF;" d="M549.436,1641.045c0,0-273.144-670.787-76.58-820.155
			c131.384-99.838,270.644,120.249,436.861,3.818c147.98-103.656,100.936-419.022,336.943-462.612
			c265.348-49.009,323.773,539.191,541.533,458.794c264.237-97.557,527.082,100.485,299.935,821.436L549.436,1641.045z"/>
		<path style="fill:#EEF7FF;" d="M2329.895,1409.79c-93.066-13.795-77.88,110.833-210.539,110.833
			c-121.29,0-160.093-474.607-248.342-338.937c-452.417,695.523-189.707-295.784-549.506-308.381
			c-162.691-5.696-271.1,167.779-311.078,474.925c-57.95,277.67-192.343-211.783-330.648-166.275
			c-87.9,28.923-77.833,338.669-199.123,338.669c-132.66,0-117.473-124.628-210.539-110.833
			c-100.201,14.852-130.13,235.441-130.13,235.441h2320.035C2460.024,1645.231,2430.096,1424.642,2329.895,1409.79z"/>
		<path style="fill:#DCE6FF;" d="M2247.479,1544.695c-85.619-5.89-71.647,47.327-193.691,47.327
			c-111.584,0-108.518-119.268-183.188-144.616c-137.51-46.68-250.876,189.57-304.188,71.001
			c-101.254-314.614-396.569-472.391-532.809,0c-53.312,118.569-177.983-93-304.188-71.001
			c-77.684,13.541-71.605,144.616-183.189,144.616c-122.043,0-108.072-53.218-193.691-47.327
			c-92.183,6.342-119.716,100.536-119.716,100.536h2134.376C2367.195,1645.231,2339.662,1551.037,2247.479,1544.695z"/>
		<path style="fill:#CFDDF9;" d="M139.956,1645.568c0,0-14.518,59.015,52.914,73.874c92.234,20.325,633.635,73.727,502.11,114.306
			c-74.246,22.907,37.902,54.013,399.535,65.466s982.168-33.425,773.491-99.827s643.84-15.698,592.052-153.82H139.956z"/>
	</g>
	<g id="_x39_">
		<rect x="368.615" y="1075.941" style="fill:#F49F9F;" width="242.053" height="569.627"/>
		<rect x="1557.544" y="939.396" style="fill:#F49F9F;" width="242.063" height="706.172"/>
		<rect x="764.925" y="927.687" style="fill:#F49F9F;" width="242.063" height="717.881"/>
		<rect x="1161.238" y="747.242" style="fill:#F49F9F;" width="242.057" height="898.326"/>
		<rect x="1953.864" y="610.688" style="fill:#F49F9F;" width="242.054" height="1034.88"/>
		<rect x="368.615" y="1075.941" style="fill:#FCB4B4;" width="192.773" height="569.627"/>
		<rect x="1557.544" y="939.396" style="fill:#FCB4B4;" width="192.783" height="706.172"/>
		<rect x="764.925" y="927.687" style="fill:#FCB4B4;" width="192.783" height="717.881"/>
		<rect x="1161.234" y="747.243" style="fill:#FCB4B4;" width="192.783" height="898.325"/>
		<rect x="1953.864" y="610.688" style="fill:#FCB4B4;" width="192.774" height="1034.88"/>
	</g>
	<g id="_x38_">
		
			<rect x="1423.353" y="1477.176" transform="matrix(-1 -1.224647e-16 1.224647e-16 -1 3104.3875 2987.0591)" style="fill:#F39200;" width="257.682" height="32.708"/>
		
			<rect x="1449.635" y="1509.884" transform="matrix(-1 -1.224647e-16 1.224647e-16 -1 3156.9529 3052.4751)" style="fill:#F39200;" width="257.682" height="32.708"/>
		<rect x="1459.491" y="1411.759" style="fill:#F39200;" width="257.682" height="32.708"/>
		<rect x="1433.209" y="1444.467" style="fill:#F39200;" width="257.682" height="32.708"/>
		
			<rect x="1443.065" y="1542.592" transform="matrix(-1 -1.224647e-16 1.224647e-16 -1 3143.8113 3117.8916)" style="fill:#F39200;" width="257.682" height="32.708"/>
		
			<rect x="1423.353" y="1575.3" transform="matrix(-1 -1.224647e-16 1.224647e-16 -1 3104.3875 3183.3076)" style="fill:#F39200;" width="257.682" height="32.708"/>
		
			<rect x="1416.782" y="1608.008" transform="matrix(-1 -1.224647e-16 1.224647e-16 -1 3091.2461 3248.7236)" style="fill:#F39200;" width="257.682" height="32.708"/>
		
			<rect x="1449.635" y="1640.716" transform="matrix(-1 -1.224647e-16 1.224647e-16 -1 3156.9529 3314.1399)" style="fill:#F39200;" width="257.682" height="32.708"/>
		
			<rect x="1632.747" y="1477.176" transform="matrix(-1 -1.224647e-16 1.224647e-16 -1 3280.9287 2987.0591)" style="fill:#F9B233;" width="15.434" height="32.708"/>
		
			<rect x="1573.9" y="1477.176" transform="matrix(-1 -1.224647e-16 1.224647e-16 -1 3163.2346 2987.0591)" style="fill:#F9B233;" width="15.434" height="32.708"/>
		
			<rect x="1515.053" y="1477.176" transform="matrix(-1 -1.224647e-16 1.224647e-16 -1 3045.5405 2987.0591)" style="fill:#F9B233;" width="15.434" height="32.708"/>
		
			<rect x="1456.206" y="1477.176" transform="matrix(-1 -1.224647e-16 1.224647e-16 -1 2927.8462 2987.0591)" style="fill:#F9B233;" width="15.434" height="32.708"/>
		
			<rect x="1659.03" y="1509.884" transform="matrix(-1 -1.224647e-16 1.224647e-16 -1 3333.4941 3052.4751)" style="fill:#F9B233;" width="15.434" height="32.708"/>
		
			<rect x="1600.183" y="1509.884" transform="matrix(-1 -1.224647e-16 1.224647e-16 -1 3215.7998 3052.4751)" style="fill:#F9B233;" width="15.434" height="32.708"/>
		
			<rect x="1541.336" y="1509.884" transform="matrix(-1 -1.224647e-16 1.224647e-16 -1 3098.1057 3052.4751)" style="fill:#F9B233;" width="15.434" height="32.708"/>
		
			<rect x="1482.489" y="1509.884" transform="matrix(-1 -1.224647e-16 1.224647e-16 -1 2980.4116 3052.4751)" style="fill:#F9B233;" width="15.434" height="32.708"/>
		<rect x="1492.345" y="1411.759" style="fill:#F9B233;" width="15.434" height="32.708"/>
		<rect x="1551.192" y="1411.759" style="fill:#F9B233;" width="15.434" height="32.708"/>
		<rect x="1610.039" y="1411.759" style="fill:#F9B233;" width="15.434" height="32.708"/>
		<rect x="1668.886" y="1411.759" style="fill:#F9B233;" width="15.434" height="32.708"/>
		<rect x="1466.062" y="1444.467" style="fill:#F9B233;" width="15.434" height="32.708"/>
		<rect x="1524.909" y="1444.467" style="fill:#F9B233;" width="15.434" height="32.708"/>
		<rect x="1583.756" y="1444.467" style="fill:#F9B233;" width="15.434" height="32.708"/>
		<rect x="1642.603" y="1444.467" style="fill:#F9B233;" width="15.434" height="32.708"/>
		
			<rect x="1652.459" y="1542.592" transform="matrix(-1 -1.224647e-16 1.224647e-16 -1 3320.3528 3117.8916)" style="fill:#F9B233;" width="15.434" height="32.708"/>
		
			<rect x="1593.612" y="1542.592" transform="matrix(-1 -1.224647e-16 1.224647e-16 -1 3202.6587 3117.8916)" style="fill:#F9B233;" width="15.434" height="32.708"/>
		
			<rect x="1534.765" y="1542.592" transform="matrix(-1 -1.224647e-16 1.224647e-16 -1 3084.9644 3117.8916)" style="fill:#F9B233;" width="15.434" height="32.708"/>
		
			<rect x="1475.918" y="1542.592" transform="matrix(-1 -1.224647e-16 1.224647e-16 -1 2967.2703 3117.8916)" style="fill:#F9B233;" width="15.434" height="32.708"/>
		
			<rect x="1632.747" y="1575.3" transform="matrix(-1 -1.224647e-16 1.224647e-16 -1 3280.9287 3183.3076)" style="fill:#F9B233;" width="15.434" height="32.708"/>
		
			<rect x="1573.9" y="1575.3" transform="matrix(-1 -1.224647e-16 1.224647e-16 -1 3163.2346 3183.3076)" style="fill:#F9B233;" width="15.434" height="32.708"/>
		
			<rect x="1515.053" y="1575.3" transform="matrix(-1 -1.224647e-16 1.224647e-16 -1 3045.5405 3183.3076)" style="fill:#F9B233;" width="15.434" height="32.708"/>
		
			<rect x="1456.206" y="1575.3" transform="matrix(-1 -1.224647e-16 1.224647e-16 -1 2927.8462 3183.3076)" style="fill:#F9B233;" width="15.434" height="32.708"/>
		
			<rect x="1626.177" y="1608.008" transform="matrix(-1 -1.224647e-16 1.224647e-16 -1 3267.7874 3248.7236)" style="fill:#F9B233;" width="15.434" height="32.708"/>
		
			<rect x="1567.33" y="1608.008" transform="matrix(-1 -1.224647e-16 1.224647e-16 -1 3150.0933 3248.7236)" style="fill:#F9B233;" width="15.434" height="32.708"/>
		
			<rect x="1508.483" y="1608.008" transform="matrix(-1 -1.224647e-16 1.224647e-16 -1 3032.3992 3248.7236)" style="fill:#F9B233;" width="15.434" height="32.708"/>
		
			<rect x="1449.635" y="1608.008" transform="matrix(-1 -1.224647e-16 1.224647e-16 -1 2914.7048 3248.7236)" style="fill:#F9B233;" width="15.434" height="32.708"/>
		
			<rect x="1659.03" y="1640.716" transform="matrix(-1 -1.224647e-16 1.224647e-16 -1 3333.4941 3314.1399)" style="fill:#F9B233;" width="15.434" height="32.708"/>
		
			<rect x="1600.183" y="1640.716" transform="matrix(-1 -1.224647e-16 1.224647e-16 -1 3215.7998 3314.1399)" style="fill:#F9B233;" width="15.434" height="32.708"/>
		
			<rect x="1541.336" y="1640.716" transform="matrix(-1 -1.224647e-16 1.224647e-16 -1 3098.1057 3314.1399)" style="fill:#F9B233;" width="15.434" height="32.708"/>
		
			<rect x="1482.489" y="1640.716" transform="matrix(-1 -1.224647e-16 1.224647e-16 -1 2980.4116 3314.1399)" style="fill:#F9B233;" width="15.434" height="32.708"/>
		
			<rect x="1099.004" y="1542.592" transform="matrix(-1 -1.224647e-16 1.224647e-16 -1 2455.6904 3117.8916)" style="fill:#F39200;" width="257.682" height="32.708"/>
		
			<rect x="1079.292" y="1575.3" transform="matrix(-1 -1.224647e-16 1.224647e-16 -1 2416.2664 3183.3076)" style="fill:#F39200;" width="257.682" height="32.708"/>
		
			<rect x="1072.722" y="1608.008" transform="matrix(-1 -1.224647e-16 1.224647e-16 -1 2403.125 3248.7236)" style="fill:#F39200;" width="257.682" height="32.708"/>
		
			<rect x="1105.575" y="1640.716" transform="matrix(-1 -1.224647e-16 1.224647e-16 -1 2468.8315 3314.1399)" style="fill:#F39200;" width="257.682" height="32.708"/>
		
			<rect x="1308.399" y="1542.592" transform="matrix(-1 -1.224647e-16 1.224647e-16 -1 2632.2317 3117.8916)" style="fill:#F9B233;" width="15.434" height="32.708"/>
		
			<rect x="1249.552" y="1542.592" transform="matrix(-1 -1.224647e-16 1.224647e-16 -1 2514.5374 3117.8916)" style="fill:#F9B233;" width="15.434" height="32.708"/>
		
			<rect x="1190.705" y="1542.592" transform="matrix(-1 -1.224647e-16 1.224647e-16 -1 2396.8433 3117.8916)" style="fill:#F9B233;" width="15.434" height="32.708"/>
		
			<rect x="1131.858" y="1542.592" transform="matrix(-1 -1.224647e-16 1.224647e-16 -1 2279.1492 3117.8916)" style="fill:#F9B233;" width="15.434" height="32.708"/>
		
			<rect x="1288.687" y="1575.3" transform="matrix(-1 -1.224647e-16 1.224647e-16 -1 2592.8076 3183.3076)" style="fill:#F9B233;" width="15.434" height="32.708"/>
		
			<rect x="1229.84" y="1575.3" transform="matrix(-1 -1.224647e-16 1.224647e-16 -1 2475.1135 3183.3076)" style="fill:#F9B233;" width="15.434" height="32.708"/>
		
			<rect x="1170.993" y="1575.3" transform="matrix(-1 -1.224647e-16 1.224647e-16 -1 2357.4192 3183.3076)" style="fill:#F9B233;" width="15.434" height="32.708"/>
		
			<rect x="1112.146" y="1575.3" transform="matrix(-1 -1.224647e-16 1.224647e-16 -1 2239.7251 3183.3076)" style="fill:#F9B233;" width="15.434" height="32.708"/>
		
			<rect x="1282.116" y="1608.008" transform="matrix(-1 -1.224647e-16 1.224647e-16 -1 2579.6663 3248.7236)" style="fill:#F9B233;" width="15.434" height="32.708"/>
		
			<rect x="1223.269" y="1608.008" transform="matrix(-1 -1.224647e-16 1.224647e-16 -1 2461.9722 3248.7236)" style="fill:#F9B233;" width="15.434" height="32.708"/>
		
			<rect x="1164.422" y="1608.008" transform="matrix(-1 -1.224647e-16 1.224647e-16 -1 2344.2778 3248.7236)" style="fill:#F9B233;" width="15.434" height="32.708"/>
		
			<rect x="1105.575" y="1608.008" transform="matrix(-1 -1.224647e-16 1.224647e-16 -1 2226.5837 3248.7236)" style="fill:#F9B233;" width="15.434" height="32.708"/>
		
			<rect x="1314.969" y="1640.716" transform="matrix(-1 -1.224647e-16 1.224647e-16 -1 2645.3728 3314.1399)" style="fill:#F9B233;" width="15.434" height="32.708"/>
		
			<rect x="1256.122" y="1640.716" transform="matrix(-1 -1.224647e-16 1.224647e-16 -1 2527.6787 3314.1399)" style="fill:#F9B233;" width="15.434" height="32.708"/>
		
			<rect x="1197.275" y="1640.716" transform="matrix(-1 -1.224647e-16 1.224647e-16 -1 2409.9846 3314.1399)" style="fill:#F9B233;" width="15.434" height="32.708"/>
		
			<rect x="1138.428" y="1640.716" transform="matrix(-1 -1.224647e-16 1.224647e-16 -1 2292.2903 3314.1399)" style="fill:#F9B233;" width="15.434" height="32.708"/>
	</g>
	<g id="_x37_">
		<polygon style="fill:#7689D6;" points="2259.425,833.287 2030.871,1210.281 1953.528,1069.404 1215.076,1474.814 
			1080.514,1229.741 399.549,1603.602 342.04,1498.852 1127.754,1067.482 1262.312,1312.57 1896.018,964.654 1818.686,823.798 		"/>
		<polygon style="fill:#677CC1;" points="2259.425,833.287 2030.871,1210.281 1953.528,1069.404 1215.076,1474.814 
			1080.514,1229.741 399.549,1603.602 369.957,1549.701 1099.241,1149.299 1232.02,1391.171 		"/>
	</g>
	<g id="_x36_">
		
			<ellipse transform="matrix(0.7071 -0.7071 0.7071 0.7071 -172.7629 1210.0718)" style="fill:#F9B233;" cx="1374.304" cy="813.579" rx="117.678" ry="117.678"/>
		<path style="fill:#F39200;" d="M1365.426,696.236c64.807-4.904,121.318,43.657,126.222,108.464s-43.657,121.318-108.464,126.222
			c-64.807,4.904-121.318-43.657-126.222-108.464C1252.058,757.651,1300.619,701.14,1365.426,696.236L1365.426,696.236z
			 M1363.992,677.284c-18.391,1.392-35.97,6.349-52.247,14.733c-15.713,8.094-29.543,19.021-41.108,32.479
			c-11.564,13.458-20.286,28.775-25.924,45.527c-5.84,17.354-8.095,35.478-6.704,53.869c1.392,18.391,6.349,35.97,14.733,52.247
			c8.094,15.713,19.021,29.543,32.479,41.107c13.458,11.564,28.775,20.286,45.527,25.924c17.354,5.84,35.478,8.095,53.869,6.704
			c18.391-1.392,35.97-6.349,52.247-14.733c15.713-8.094,29.543-19.021,41.108-32.479c11.564-13.458,20.286-28.775,25.924-45.527
			c5.84-17.354,8.095-35.478,6.704-53.869s-6.349-35.97-14.733-52.247c-8.094-15.713-19.021-29.543-32.479-41.108
			c-13.458-11.564-28.775-20.286-45.527-25.924C1400.507,678.148,1382.383,675.893,1363.992,677.284L1363.992,677.284z"/>
		<path style="fill:#F39200;" d="M1425.246,810.69c-9.084-6.697-21.854-11.766-40.156-15.943
			c-29.014-6.749-34.563-11.173-35.038-17.455c-0.491-6.493,6.973-13.648,24.758-14.994c19.203-1.453,31.613,2.845,36.912,4.681
			c3.657,1.267,7.667-0.548,9.13-4.13l6.606-16.177c0.752-1.841,0.718-3.911-0.093-5.726c-0.811-1.816-2.33-3.221-4.203-3.89
			c-11.054-3.945-23.155-5.861-36.818-5.813l-1.21-15.987c-0.304-4.013-3.802-7.019-7.815-6.715l-19.308,1.461
			c-4.012,0.304-7.019,3.802-6.715,7.815l1.334,17.634c-28.372,7.607-45.333,25.909-43.677,47.801
			c2.06,27.229,30.13,37.017,60.164,43.533c27.074,6.137,31.182,12.987,31.628,18.878c0.696,9.202-11.328,16.828-28.592,18.134
			c-14.634,1.107-30.043-1.163-42.276-6.228c-1.817-0.752-3.86-0.738-5.667,0.039c-1.806,0.777-3.222,2.251-3.925,4.087
			l-6.276,16.389c-1.383,3.612,0.297,7.675,3.827,9.256c11.079,4.959,28.018,7.806,44.673,7.661l1.277,16.878
			c0.304,4.013,3.802,7.019,7.815,6.715l19.619-1.484c4.012-0.304,7.019-3.802,6.715-7.815l-1.388-18.347
			c13.626-3.653,24.938-9.776,32.971-17.896c9.082-9.18,13.601-20.612,12.725-32.19
			C1441.306,828.464,1435.587,818.314,1425.246,810.69z"/>
		
			<ellipse transform="matrix(0.7071 -0.7071 0.7071 0.7071 379.9532 1644.1365)" style="fill:#F9B233;" cx="2174.625" cy="363.424" rx="102.202" ry="102.202"/>
		<path style="fill:#F39200;" d="M2191.81,262.677c55.641,9.491,93.053,62.291,83.562,117.932
			c-9.491,55.641-62.292,93.053-117.933,83.562c-55.641-9.491-93.053-62.291-83.562-117.932
			C2083.369,290.598,2136.169,253.186,2191.81,262.677L2191.81,262.677z M2194.586,246.405c-15.79-2.693-31.645-2.212-47.124,1.432
			c-14.942,3.517-28.894,9.818-41.468,18.727c-12.574,8.909-23.143,19.983-31.415,32.914c-8.569,13.396-14.28,28.194-16.973,43.984
			c-2.693,15.79-2.212,31.645,1.432,47.124c3.517,14.942,9.818,28.894,18.728,41.467c8.909,12.574,19.983,23.143,32.914,31.415
			c13.396,8.569,28.194,14.28,43.984,16.973c15.79,2.693,31.645,2.212,47.124-1.432c14.942-3.517,28.894-9.818,41.468-18.728
			c12.574-8.909,23.144-19.983,31.416-32.914c8.569-13.396,14.28-28.194,16.973-43.984c2.693-15.79,2.212-31.645-1.432-47.124
			c-3.517-14.942-9.818-28.894-18.728-41.468c-8.909-12.574-19.983-23.143-32.914-31.415
			C2225.175,254.809,2210.376,249.099,2194.586,246.405L2194.586,246.405z"/>
		<path style="fill:#F39200;" d="M2218.159,371.698c-6.247-7.553-15.942-14.509-30.487-21.876
			c-23.03-11.786-26.777-16.681-25.856-22.074c0.951-5.575,8.745-10.035,24.014-7.43c16.488,2.812,26.041,9.043,30.121,11.704
			c2.815,1.836,6.575,1.15,8.561-1.561l8.967-12.243c1.021-1.393,1.427-3.144,1.125-4.845c-0.302-1.701-1.286-3.204-2.724-4.161
			c-8.485-5.648-18.28-9.807-29.803-12.638l2.341-13.726c0.588-3.445-1.729-6.714-5.174-7.301l-16.577-2.828
			c-3.445-0.588-6.714,1.728-7.302,5.173l-2.583,15.14c-25.507,0.447-43.647,12.303-46.853,31.099
			c-3.988,23.378,17.608,37.527,41.547,49.331c21.524,10.863,23.547,17.499,22.684,22.556c-1.348,7.9-13.084,11.799-27.906,9.271
			c-12.564-2.143-25.072-7.295-34.315-14.135c-1.373-1.016-3.098-1.433-4.783-1.159c-1.685,0.275-3.188,1.22-4.167,2.619
			l-8.734,12.491c-1.925,2.753-1.363,6.53,1.279,8.604c8.293,6.508,21.969,12.467,36.034,15.847l-2.472,14.491
			c-0.587,3.445,1.729,6.714,5.174,7.301l16.844,2.873c3.445,0.588,6.714-1.728,7.302-5.173l2.687-15.752
			c12.25-0.213,23.07-2.996,31.546-8.15c9.583-5.827,15.794-14.51,17.49-24.451C2227.956,390.052,2225.271,380.296,2218.159,371.698
			z"/>
		
			<ellipse transform="matrix(0.9999 -0.0161 0.0161 0.9999 -5.9887 11.9469)" style="fill:#F9B233;" cx="737.62" cy="377.223" rx="83.413" ry="83.413"/>
		<path style="fill:#F39200;" d="M722.946,295.111c45.349-8.104,88.682,22.089,96.786,67.438
			c8.104,45.349-22.089,88.682-67.438,96.786c-45.349,8.104-88.682-22.089-96.786-67.438
			C647.404,346.548,677.597,303.215,722.946,295.111L722.946,295.111z M720.576,281.849c-12.87,2.3-24.91,7.056-35.788,14.136
			c-10.5,6.834-19.47,15.532-26.66,25.851c-7.19,10.319-12.243,21.746-15.017,33.963c-2.874,12.656-3.165,25.599-0.865,38.468
			c2.3,12.87,7.056,24.91,14.135,35.787c6.834,10.5,15.532,19.47,25.851,26.66c10.319,7.19,21.746,12.242,33.963,15.017
			c12.656,2.874,25.599,3.165,38.468,0.865c12.87-2.3,24.91-7.056,35.788-14.136c10.5-6.834,19.47-15.532,26.66-25.851
			c7.19-10.319,12.243-21.746,15.017-33.963c2.874-12.656,3.165-25.599,0.865-38.468c-2.3-12.87-7.056-24.91-14.136-35.787
			c-6.834-10.5-15.532-19.47-25.851-26.66c-10.319-7.19-21.746-12.242-33.963-15.017
			C746.388,279.84,733.446,279.549,720.576,281.849L720.576,281.849z"/>
		<path style="fill:#F39200;" d="M773.336,371.533c-6.886-4.072-16.255-6.73-29.461-8.363c-20.944-2.679-25.175-5.401-25.96-9.797
			c-0.812-4.544,3.939-10.124,16.384-12.348c13.438-2.401,22.497-0.26,26.366,0.654c2.669,0.631,5.367-0.936,6.142-3.567
			l3.499-11.881c0.398-1.352,0.226-2.809-0.476-4.031c-0.702-1.223-1.874-2.105-3.243-2.442c-8.078-1.99-16.749-2.473-26.38-1.459
			l-1.999-11.187c-0.502-2.808-3.185-4.677-5.992-4.175l-13.511,2.415c-2.808,0.502-4.677,3.184-4.175,5.992l2.205,12.339
			c-19.462,7.399-30.111,21.521-27.373,36.84c3.405,19.054,23.901,23.944,45.548,26.385c19.532,2.387,22.921,6.923,23.657,11.044
			c1.151,6.439-6.782,12.679-18.863,14.838c-10.24,1.83-21.269,1.334-30.259-1.361c-1.335-0.4-2.775-0.244-3.993,0.433
			c-1.218,0.677-2.111,1.818-2.475,3.164l-3.251,12.008c-0.717,2.646,0.76,5.391,3.362,6.253c8.168,2.703,20.317,3.496,32.052,2.199
			l2.111,11.81c0.502,2.808,3.185,4.677,5.992,4.175l13.729-2.454c2.808-0.502,4.677-3.184,4.175-5.992l-2.294-12.839
			c9.347-3.553,16.885-8.682,21.968-14.984c5.746-7.125,8.113-15.51,6.665-23.612C785.936,382.916,781.175,376.168,773.336,371.533z
			"/>
	</g>
	<path id="_x35_" style="fill:#7689D6;" d="M1712.239,442.005c-24.279-7.619-29.253-11.746-29.253-15.6
		c0-3.57,5.559-8.883,20.876-8.883c17.421,0,28.312,4.719,32.963,6.734c5.02,2.174,10.865,0.047,13.308-4.848l7.353-14.721
		c1.257-2.515,1.43-5.435,0.48-8.081c-0.95-2.646-2.941-4.79-5.51-5.932c-9.619-4.276-20.197-6.948-32.118-8.093v-11.937
		c0-5.688-4.612-10.299-10.299-10.299h-18.235c-5.688,0-10.299,4.611-10.299,10.299v13.847c-27.27,6.01-44.41,22.889-44.41,44.59
		c0,27.98,26.863,39.826,55.8,48.431c25.961,7.982,25.961,14.314,25.961,16.698c0,6.482-10.849,11.559-24.7,11.559
		c-13.104,0-27.199-3.171-37.704-8.482c-2.481-1.254-5.362-1.452-7.992-0.551c-2.629,0.903-4.781,2.829-5.968,5.343l-7.058,14.944
		c-2.335,4.943-0.4,10.85,4.407,13.454c9.757,5.285,24.559,9.147,39.605,10.52v12.765c0,5.688,4.611,10.299,10.299,10.299h18.528
		c5.688,0,10.299-4.611,10.299-10.299v-14.513c32.014-6.998,46.47-27.781,46.47-46.6
		C1765.041,462.235,1736.8,449.601,1712.239,442.005z"/>
	<g id="_x34_">
		<g>
			<path style="fill:#EB5648;" d="M1258.468,411.173c0,0-6.535,50.952-46.954,66.552c-40.419,15.6-79.245,20.143-83.385,11.793
				c-2.837-5.723,40.716-18.449,48.552-31.859c7.837-13.411,8.373-25.043,8.373-25.043L1258.468,411.173z"/>
			<path style="fill:#EB5648;" d="M1214.157,317.212c0,0-42.086-26.311-80.013-5.369c-37.927,20.942-66.359,47.77-62.623,56.308
				c2.561,5.851,40.301-19.339,55.612-16.725c15.311,2.614,27.123,12.364,27.123,12.364L1214.157,317.212z"/>
			<path style="fill:#FCB4B4;" d="M1326.504,397.437C1291.445,407.866,1185.605,433,1185.605,433l-33.626-71.302
				c0,0,86.271-66.358,117.069-86.093c27.033-17.322,55.013-30.257,80.842-37.21c3.431-0.922,6.826-1.741,10.17-2.451
				c40.682-8.619,74.689-1.106,88.998,29.236c14.559,30.872-0.717,62.436-33.404,88.39c-2.676,2.129-5.471,4.218-8.378,6.264
				C1385.555,375.146,1357.678,388.164,1326.504,397.437z"/>
			<path style="fill:#CE3932;" d="M1407.277,359.834c-13.518-15.911-26.073-35.317-36.435-57.289
				c-10.292-21.824-17.259-43.712-20.952-64.149c3.431-0.922,6.826-1.741,10.17-2.451c40.682-8.619,74.689-1.106,88.998,29.236
				c14.559,30.872-0.717,62.436-33.404,88.39C1412.979,355.699,1410.183,357.788,1407.277,359.834z"/>
			<polygon style="fill:#CE3932;" points="1145.099,363.786 1179.648,437.858 1192.56,431.836 1157.986,357.709 			"/>
			<path style="fill:#EB5648;" d="M1151.531,396.764c39.336-18.347,72.881-29.666,74.926-25.282s-28.185,22.811-67.521,41.158
				c-39.336,18.347-72.881,29.666-74.926,25.282C1081.965,433.538,1112.195,415.111,1151.531,396.764z"/>
			
				<ellipse transform="matrix(0.9755 -0.2202 0.2202 0.9755 -40.8287 296.5218)" style="fill:#EB5648;" cx="1309.65" cy="331.4" rx="52.066" ry="52.066"/>
			<path style="fill:#8A9EDD;" d="M1292.317,294.233c2.007-0.936,4.052-1.697,6.111-2.284c3.341-0.957,6.727-1.464,10.098-1.555
				c3.218-0.091,6.419,0.208,9.53,0.863c6.463,1.357,12.548,4.26,17.695,8.496c4.572,3.767,8.395,8.586,11.064,14.312
				c9.58,20.527,0.697,44.931-19.831,54.504c-2.152,1.006-4.348,1.807-6.566,2.415c-6.544,1.787-13.271,1.871-19.625,0.463
				c-3.123-0.692-6.16-1.75-9.037-3.142c-3.057-1.48-5.939-3.345-8.567-5.557c-4.412-3.723-8.103-8.438-10.705-14.014
				C1262.907,328.21,1271.79,303.806,1292.317,294.233z"/>
			<path style="fill:#98B1ED;" d="M1318.056,291.257c6.463,1.357,12.548,4.26,17.695,8.496l-15.333,71.231
				c-6.544,1.787-13.271,1.871-19.625,0.463L1318.056,291.257z"/>
			<path style="fill:#98B1ED;" d="M1298.428,291.949c3.341-0.957,6.727-1.464,10.098-1.555l-16.771,77.91
				c-3.057-1.48-5.939-3.345-8.567-5.557L1298.428,291.949z"/>
			<path style="fill:#EB5648;" d="M1415.655,353.57c-12.989-15.591-25.037-34.418-35.042-55.633
				c-9.931-21.059-16.763-42.175-20.552-61.993c40.682-8.619,74.689-1.106,88.998,29.236
				C1463.618,296.052,1448.342,327.615,1415.655,353.57z"/>
		</g>
		<path style="fill:#94A8EA;" d="M355.161,1003.898c0.205-5.453,0.465-10.947,0.774-16.331c0.466-8.136,1.058-16.286,1.758-24.224
			l16.69,1.472c-0.686,7.769-1.265,15.746-1.721,23.71c-0.302,5.275-0.557,10.659-0.758,16.002L355.161,1003.898z M378.966,925.346
			l-16.581-2.407c1.977-13.616,4.361-27.109,7.086-40.103l16.399,3.439C383.215,898.929,380.893,912.074,378.966,925.346z
			 M395.322,847.805l-16.119-4.573c3.764-13.268,8.017-26.336,12.639-38.84l15.716,5.81
			C403.085,822.301,398.968,834.953,395.322,847.805z M422.796,773.79l-15.16-7.136c5.877-12.484,12.321-24.671,19.152-36.222
			l14.422,8.529C434.645,750.062,428.449,761.78,422.796,773.79z M808.704,794.826l0.438-16.75
			c10.861,0.284,23.049-2.481,35.246-7.997l6.904,15.266C836.806,791.897,822.079,795.176,808.704,794.826z M766.982,775.264
			c-8.051-10.663-11.64-24.697-10.665-41.713c0.043-0.757,0.096-1.528,0.159-2.307l16.701,1.347
			c-0.052,0.644-0.096,1.282-0.132,1.913c-0.742,12.945,1.718,23.26,7.309,30.664L766.982,775.264z M886.858,761.768l-11.266-12.403
			c9.309-8.456,17.377-18.238,23.979-29.076l14.309,8.717C906.444,741.212,897.353,752.235,886.858,761.768z M462.904,706.153
			l-13.484-9.946c8.159-11.06,16.942-21.729,26.104-31.712l12.344,11.33C479.108,685.368,470.709,695.572,462.904,706.153z
			 M782.222,695.964l-15.664-5.947c1.642-4.325,3.505-8.815,5.536-13.347c3.608-8.047,7.804-16.161,12.471-24.115l14.451,8.479
			c-4.36,7.43-8.274,14.998-11.633,22.491C785.485,687.759,783.748,691.944,782.222,695.964z M930.651,690.058l-16.158-4.434
			c1.604-5.845,2.851-11.91,3.706-18.025c0.332-2.379,0.569-4.761,0.701-7.079c0.226-3.947,0.161-7.853-0.193-11.609l16.681-1.574
			c0.434,4.595,0.514,9.353,0.24,14.141c-0.159,2.771-0.44,5.611-0.835,8.441C933.839,676.745,932.446,683.521,930.651,690.058z
			 M515.941,648.422l-11.025-12.617c10.255-8.962,21.152-17.473,32.387-25.296l9.575,13.75
			C536.144,631.732,525.736,639.862,515.941,648.422z M821.142,628.892l-13.138-10.398c8.158-10.308,17.348-20.651,27.315-30.742
			l11.92,11.774C837.702,609.183,828.921,619.063,821.142,628.892z M580.294,603.563l-8.056-14.692
			c11.818-6.48,24.243-12.492,36.929-17.868l6.538,15.427C603.535,591.587,591.621,597.352,580.294,603.563z M906.395,615.719
			c-6.503-9.266-15.55-17.701-26.889-25.071l9.131-14.049c13.144,8.543,23.733,18.466,31.472,29.495L906.395,615.719z
			 M652.672,572.788l-5.072-15.969c4.366-1.386,8.83-2.732,13.267-3.997c8.437-2.407,17.441-4.466,26.76-6.119l2.927,16.498
			c-8.759,1.553-17.201,3.483-25.09,5.733C661.186,570.154,656.882,571.451,652.672,572.788z M845.13,574.009
			c-11.527-4.131-24.162-7.514-37.556-10.055l3.122-16.462c14.251,2.703,27.738,6.318,40.088,10.744L845.13,574.009z
			 M876.244,572.712l-10.845-12.772c10.002-8.494,20.791-16.992,32.067-25.261l9.908,13.512
			C896.417,556.226,885.944,564.475,876.244,572.712z M729.461,558.855l-0.849-16.734c13.648-0.692,27.494-0.606,41.159,0.269
			l-1.066,16.721C755.68,558.28,742.474,558.195,729.461,558.855z M940.123,525.688l-9.086-14.078
			c11.095-7.16,22.782-14.276,34.738-21.15l8.351,14.526C962.419,511.717,950.978,518.682,940.123,525.688z M1009.136,485.926
			l-7.678-14.892c11.938-6.155,24.215-12.152,36.489-17.824l7.028,15.21C1032.92,473.99,1020.861,479.881,1009.136,485.926z"/>
	</g>
	<g id="_x33_">
		<path style="fill:#1D3F70;" d="M2023.215,1232.953c-1.154,0.597,14.299,0.477,13.303,1.633
			c-32.535,28.137-81.071,37.046-117.095,9.638v-0.039c-10.719-7.843-21.548-20.461-29.075-33.656l8.842-14.338
			c70.224,43.316,98.023-30.606,155.13-36.364l-11.43,16.688L2023.215,1232.953z"/>
		<path style="fill:#F99370;" d="M2101.188,1728.134l1.072-0.559c0,0.75,0.927,3.355,1.677,3.355l31.687,0.652
			c0.75,0,1.211-1.412,1.211-2.162l2.703-0.774c0-4.745-0.391-6.465-2.487-10.137c-7.704-10.239,1.493-56.031,1.227-67.994
			c1.9-3.271-33.368-0.705-33.86-1.477c-0.792,0.001-1.417,0.677-1.354,1.466l4.151,52.323
			C2109.076,1712.764,2101.453,1718.769,2101.188,1728.134z"/>
		<path style="fill:#F99370;" d="M1963.831,1732.694h63.116c5.509-0.222,5.468-5.841,4.452-10.199
			c-3.475-15.707,2.668-51.773,3.806-67.927c0.303-2.958-2.018-5.529-4.992-5.529h-27.855c-3.019,0-5.355,2.647-4.979,5.642
			l5.066,40.393c2.752,17.549-18.18,20.894-30.114,22.834C1964.475,1718.478,1951.335,1729.202,1963.831,1732.694z"/>
		<path style="fill:#3A72AA;" d="M2033.802,1726.146c-0.17,3.095-1.705,6.625-5.289,6.548c0,0-65.469,0-65.469,0
			c-15.442-5.728,6.744-26.215,36.971-26.093c13.421,3.683,30.351,1.037,30.351,1.037
			C2030.028,1707.688,2034.532,1712.064,2033.802,1726.146z"/>
		<path style="fill:#3A72AA;" d="M2134.517,1732.694h-27.982c-13.637-1.862-3.911-25.954,13.987-26.134
			C2138.513,1706.38,2148.143,1730.857,2134.517,1732.694z"/>
		<path style="fill:#23659B;" d="M1958.463,1726.146h75.339c-0.277,2.3-0.913,4.533-2.066,6.548h-68.692
			C1959.661,1732.699,1957.261,1729.308,1958.463,1726.146z"/>
		<path style="fill:#23659B;" d="M2134.517,1732.694h-27.982c-3.56,0.004-6.425-2.996-6.205-6.548h40.393
			C2140.939,1729.698,2138.077,1732.699,2134.517,1732.694z"/>
		<path style="fill:#1D3F70;" d="M2045.551,1087.808c0,0-0.331-20.457,18.16-24.089l9.694,10.056L2045.551,1087.808z"/>
		<path style="fill:#EB5648;" d="M2142.693,1696.987c0,0-29.844,7.249-45.218-0.54c-8.003-50.184-30.217-189.916-37.954-285.669
			c-0.296,5.583-16.551,230.76-19.645,285.669c-10.615,3.552-31.959,7.837-43.904-0.767c-5.365-57.803-22.594-248.112,3.358-403.54
			c0,0,71.12,7.911,126.661-8.872C2141.279,1332.571,2145.328,1637.823,2142.693,1696.987z"/>
		<path style="fill:#CE3932;" d="M2007.452,1690.882c-7.293-166.123,9.44-308.999,6.93-310.702
			C2009.994,1380.532,1993.172,1524.683,2007.452,1690.882z"/>
		<path style="fill:#CE3932;" d="M2119.21,1690.882c-2.896-170.705-28.263-332.394-32.094-333.009
			C2084.247,1360.022,2109.18,1519.849,2119.21,1690.882z"/>
		<path style="fill:#F99370;" d="M2053.803,1159.262c-1.552-13.534,0.566-33.061,2.453-41.094
			c3.403-15.845,28.53-9.713,24.354,5.862c-0.81-0.509-3.403,28.203-1.613,36.173
			C2102.576,1167.278,2031.658,1190.539,2053.803,1159.262z"/>
		<path style="fill:#E57D61;" d="M2080.85,1122.724c-0.062,0.437-0.139,0.88-0.241,1.307c-0.584-0.387-2.219,15.455-2.234,26.953
			c-10.804,4.913-22.824,2.492-25.029,2.04c-0.236-14.564,1.076-27.574,3.216-35.906
			C2060.941,1103.017,2083.086,1108.156,2080.85,1122.724z"/>
		<path style="fill:#F99370;" d="M2097.605,1116.813c-3.578,10.826-9.344,22.751-19.304,28.691l-0.014-0.002
			c-4.045,2.387-8.631,3.552-13.368,3.722c-26.605,3.589-52.813-32.631-28.871-50.655c3.946-2.812,7.401-6.891,9.5-10.761
			C2066.881,1046.678,2110.624,1078.958,2097.605,1116.813z"/>
		<path style="fill:#F9F8F3;" d="M2042.07,1121.089l15.771-5.103C2057.925,1124.912,2047.394,1129.216,2042.07,1121.089z"/>
		<path style="fill:#103663;" d="M2007.643,1216.503l-10.953,40.187c-23.459,7.209-48.471,5.576-70.536-7.966
			c24.255,13.701,57.591,5.974,62.849-2.071C1994.539,1238.131,2006.886,1217.738,2007.643,1216.503z"/>
		<path style="fill:#1D3F70;" d="M2136.34,1350.376c-2.541,3.088-5.249,6.183-8.118,9.293c0,0-13.973,2.628-24.916-11.929
			c44.625-94.6-41.53-103.428-24.31-187.538C2136.559,1166.999,2216.636,1252.909,2136.34,1350.376z"/>
		<path style="fill:#C16256;" d="M2056.293,1103.14c-0.707-2.095,2.6-3.157,3.245-1.042
			C2060.245,1104.193,2056.938,1105.255,2056.293,1103.14z"/>
		<path style="fill:#C16256;" d="M2042.531,1098.489c-0.706-2.095,2.6-3.157,3.245-1.042
			C2046.483,1099.542,2043.176,1100.603,2042.531,1098.489z"/>
		<path style="fill:#E57D61;" d="M2097.605,1116.813c-3.578,10.826-9.344,22.751-19.304,28.691l-0.014-0.002
			c-0.825,0.489-1.68,0.928-2.555,1.312c7.748-5.557,13.904-19.156,13.904-19.156l0.365-12.297
			c-9.026-12.66-2.409-24.203-2.409-24.203c-18.847,2.161-23.135-9.944-23.135-9.944c-5.819-0.181-11.469-4.085-11.469-4.085
			C2078.246,1051.01,2108.844,1088.33,2097.605,1116.813z"/>
		<path style="fill:#C16256;" d="M2042.07,1121.734c0.354-0.404,17.194-4.705,16.385-5.946c0.323-1.573-16.263,4.914-16.583,4.687
			C2041.182,1120.676,2041.361,1121.757,2042.07,1121.734z"/>
		<path style="fill:#C16256;" d="M2046.631,1114.072c1.108,0.344,2.054-1.205,0.614-1.335c-2.267,0.427-7.22-1.907-4.485-3.03
			c3.919-1.337,10.033-10.308,6.458-8.703c-0.035,0.063-3.431,6.276-6.884,7.487
			C2037.601,1110.837,2043.356,1114.078,2046.631,1114.072z"/>
		<path style="fill:#103663;" d="M2136.34,1350.376c-2.541,3.088-5.249,6.183-8.118,9.293c0,0-14.23,1.992-25.173-12.565
			c1.608-3.906,3.385-6.443,4.754-10.323C2107.803,1336.781,2116.256,1346.244,2136.34,1350.376z"/>
		<path style="fill:#CE3932;" d="M2129.226,1361.54c3.013,0.904,6.183-2.663,2.09-3.697c-22.145,0.966-28.046-13.652-28.286-14.275
			C2093.43,1338.163,2105.226,1362.87,2129.226,1361.54z"/>
		<path style="fill:#F4D4BE;" d="M1988.988,1358.956c0,0,4.344,18.635,39.108,27.827c9.957,2.633,15.711,1.331,17.171-5.572
			c0.733-3.467,2.626-9.499,6.105-11.736c0,0,7.778,3.359,10.713,8.125c6.435,10.448,16.13,0.956,20.849-9.979
			c5.837-13.526,20.627-24.986,23.862-36.331L1988.988,1358.956z"/>
		<path style="fill:#1D3F70;" d="M2130.647,1335.921c-1.132,2.002-1.808,1.685-2.965,0.523
			c-31.228-23.323-42.409,27.638-76.06,28.551c-34.253,3.39-53.307,5.325-62.637-6.042c-16.289-25.246,9.619-138.103,30.574-165.432
			c9.18-14.209,25.465-26.872,34.231-34.246c-0.18,0.74-4.846,20.148,25.208,0.927c1.511,0.638,11.039,9.933,10.439,14.908
			C2090.963,1197.959,2145.175,1310.253,2130.647,1335.921z"/>
		<path style="fill:#1D3F70;" d="M2043.921,1058.653c0,0,8.812-2.427,17.843,1.12c1.035-3.426,3.146-6.586,6.573-9.089
			c1.473,4.163,3.566,8.159,5.95,11.885c0.816-7.828,5.641-14.175,5.641-14.175c1.29,7.499,11.654,12.893,16.542,21.009
			c0,0,27.641,9.478,7.91,33.745l-0.001-0.001c-0.813,8.981-5.196,18.066-5.196,18.066c-14.508-13.251-11.382-29.176-4.79-33.317
			c-11.824,4.193-22.356-0.777-28.303-8.624C2057.298,1077.812,2046.547,1073.025,2043.921,1058.653z"/>
		<path style="fill:#103663;" d="M2112.571,1343.097l-6.848-1.423c27.375-61.625-4.82-87.677-21.85-122.397
			C2123.363,1264.973,2129.34,1290.026,2112.571,1343.097z"/>
		<path style="fill:#F99370;" d="M2103.764,1123.563c-4.531,12.168-19.821,6.278-15.017-5.785
			C2093.278,1105.61,2108.568,1111.5,2103.764,1123.563z"/>
		<path style="fill:#C16256;" d="M2099.437,1125.538c2.795-2.926,2.793-7.84,1.519-9.205c-2.322-2.384-6.724-2.102-6.732-0.719
			c0.592,1.395,3.579-0.888,5.718,1.516C2102.249,1118.943,2097.637,1124.797,2099.437,1125.538z"/>
		<path style="fill:#C16256;" d="M2093.637,1123.691c0.985-0.069,2.585-4.537,7.458-4.246c0.352,0.04,0.668-0.228,0.702-0.582
			C2098.621,1115.648,2090.761,1123.754,2093.637,1123.691z"/>
		<path style="fill:#F4D4BE;" d="M2088.24,1161.852c0.163,11.465-29.25,21.587-30.917,21.602l-3.526-10.432
			c-4.526,1.117-8.512,7.454-8.512,7.454c-13.047-12.429-0.778-23.266,8.512-21.215c0,0,0,0.007-0.007,0.015
			c-0.181,0.741-2.231,17.752,25.095,0.337C2082.404,1157.984,2088.24,1161.852,2088.24,1161.852z"/>
		<path style="fill:#CE3932;" d="M2039.875,1696.447c0.024-0.043-3.855,1.429-9.213,2.453c0,0,14.995-223.463,17.229-253.285
			c2.234-29.822,11.629-34.837,11.629-34.837S2039.627,1691.621,2039.875,1696.447z"/>
		<path style="fill:#CE3932;" d="M2040.466,1685.613c-0.401,6.446-0.62,10.301-0.591,10.834
			c-10.615,3.552-31.959,7.837-43.904-0.767c0,0-0.38-3.541-1-10.067C1994.97,1685.613,2015.893,1695.235,2040.466,1685.613z"/>
		<path style="fill:#CE3932;" d="M2142.693,1696.987c0,0-29.844,7.249-45.218-0.54c0,0-0.635-3.884-1.745-10.834
			c0,0,21.021,5.891,47.324,0C2143.17,1692.388,2142.598,1696.425,2142.693,1696.987z"/>
		<path style="fill:#103663;" d="M1907.193,1200.722c-0.04,9.162-12.741,16.419-12.741,16.419c-1.395-2.111-2.789-4.342-4.102-6.612
			l8.842-14.338C1901.859,1197.665,1904.683,1199.488,1907.193,1200.722z"/>
		<path style="fill:#F99370;" d="M1886.205,1170.409c-3.423,2.201,2.191,8.976,1.764,12.663c-5.675-2.587-10.646-6.834-10.687-6.827
			c-4.866-6-9.398-12.252-13.649-18.711c-10.483-4.802,6.144,18.938,7.398,21.86c-0.028,0.026-0.055,0.054-0.083,0.081
			c-6.295-5.082-12.323-10.52-17.853-16.428c-11.795-2.462,11.982,19.235,14.145,21.817c-0.008,0.018-0.016,0.035-0.023,0.053
			c-6.73-3.779-13.001-8.383-18.703-13.592c-12.096-1.424,13.739,18.757,16.612,20.566c-0.005,0.03-0.011,0.06-0.016,0.09
			c-5.121-0.68-15.656-10.147-19.036-7.858c-3.206,5.193,32.153,24.066,44.276,26.406c4.362,1.2,9.892-10.014,8.825-14.326
			c-1.001-4.043-3.79-8.991-4.748-10.806C1892.914,1181.178,1891.225,1170.743,1886.205,1170.409z"/>
		<path style="fill:#395B96;" d="M1919.383,1244.105c0.359,0.278,0.718,0.557,1.075,0.876c-0.358-0.279-0.677-0.518-1.035-0.757
			v-0.039C1919.383,1244.144,1919.383,1244.105,1919.383,1244.105z"/>
		<path style="fill:#C16256;" d="M2065.512,1102.702c0.06,0,0.121-0.007,0.182-0.023c0.394-0.101,0.634-0.499,0.535-0.894
			c-0.055-0.221-1.444-5.453-9.118-8.07c-0.388-0.132-0.807,0.075-0.938,0.461c-0.132,0.386,0.075,0.807,0.461,0.938
			c6.868,2.341,8.113,6.842,8.163,7.032C2064.883,1102.48,2065.183,1102.702,2065.512,1102.702z"/>
		<path style="fill:#C16256;" d="M2043.284,1093.141c0.17,0,0.34-0.058,0.479-0.176c2.929-2.494,7.279-0.345,7.323-0.323
			c0.365,0.184,0.808,0.039,0.993-0.325c0.184-0.364,0.04-0.808-0.323-0.993c-0.214-0.108-5.266-2.621-8.951,0.516
			c-0.311,0.265-0.349,0.731-0.084,1.042C2042.867,1093.053,2043.075,1093.141,2043.284,1093.141z"/>
	</g>
	<g id="_x32_">
		<rect x="507.687" y="1337.752" style="fill:#234270;" width="185.348" height="185.347"/>
		<rect x="507.681" y="1521.822" style="fill:#5279BF;" width="184.203" height="8.503"/>
		<path style="fill:#4867AA;" d="M603.061,1674.116c3.78,0,6.846-3.047,6.846-6.805l0.008-125.022c0-3.758-3.065-6.806-6.845-6.806
			c-3.78,0-6.845,3.047-6.846,6.806l-0.008,125.022C596.216,1671.068,599.281,1674.116,603.061,1674.116z"/>
		<path style="fill:#4867AA;" d="M536.755,1701.566c12.618-0.33,0.265-21.587,23.771-23.63c0,0,87.037,0.005,87.037,0.005
			c9.332,0,16.923,7.549,16.923,16.827c0.005,8.886,13.672,8.904,13.691,0c0.001-16.783-13.732-30.438-30.612-30.439l-87.038-0.005
			C538.993,1661.689,518.297,1698.076,536.755,1701.566z"/>
		<path style="fill:#234270;" d="M589.914,1544.72l26.31,0.002c8.309-0.187,10.421-7.61,9.676-14.595l-45.66-0.003
			C579.495,1537.111,581.607,1544.532,589.914,1544.72z"/>
		<path style="fill:#234270;" d="M586.911,1681.21l32.299,0.002c7.534-0.115,6.842-8.198,6.681-13.515
			c0.001-3.668-2.99-6.641-6.679-6.642l-32.299-0.002c-3.689,0-6.68,2.973-6.681,6.641
			C580.084,1673.013,579.358,1681.088,586.911,1681.21z"/>
		<path style="fill:#234270;" d="M658.398,1694.768c0.289,16.902,25.578,16.901,25.867,0.001
			C683.975,1677.867,658.687,1677.868,658.398,1694.768z"/>
		<path style="fill:#234270;" d="M523.822,1694.759c0.289,16.902,25.578,16.901,25.867,0.001
			C549.399,1677.859,524.111,1677.86,523.822,1694.759z"/>
		<path style="fill:#662948;" d="M616.701,1159.593c0,0,13.744-7.755,23.663,9.972c9.919,17.726,2.707,19.478,17.211,39.047
			c14.504,19.568-10.178,43.39-25.928,44.893s-2.273,22.5-32.826,21.098C568.267,1273.201,509.964,1181.176,616.701,1159.593z"/>
		<path style="fill:#3A72AA;" d="M612.761,1261.163c0.803,1.907,8.856,20.931,9.372,22.162
			c15.013,19.273,46.148,59.266,61.001,78.345C700.256,1310.063,652.285,1262.071,612.761,1261.163z"/>
		<path style="fill:#F99370;" d="M752.775,1732.681l-63.193-0.698c0.163-10.101,2.855-30.493,0.85-42.019
			c0.002,0,4.734-35.667,4.734-35.667l27.857,0.308l-6.379,46.679c-0.757,5.537,2.528,10.818,7.818,12.619
			c11.61,4.561,24.867,2.579,32.297,11.74C758.69,1728.722,756.408,1732.721,752.775,1732.681z"/>
		<path style="fill:#1D3F70;" d="M687.729,1725.878c0.234,2.14,0.801,4.222,1.852,6.106l63.809,0.704
			c3.103,0.034,5.382-2.994,4.385-5.933c-2.347-6.867-10.649-16.887-40.044-18.75c0,0-10.295,2.679-26.714-0.481
			C691.018,1707.524,686.766,1717.203,687.729,1725.878z"/>
		<path style="fill:#E8C0A6;" d="M739.017,1724.295c0.504,0,0.985-0.299,1.192-0.794c2.402-5.743,6.639-7.461,6.818-7.532
			c1.558-0.581,0.63-3.036-0.927-2.414c-0.22,0.084-5.427,2.135-8.275,8.948C737.456,1723.33,738.118,1724.312,739.017,1724.295z"/>
		<path style="fill:#E8C0A6;" d="M728.984,1722.972c0.547,0,1.054-0.349,1.23-0.897c2.142-6.658,7.994-9.681,8.053-9.711
			c1.504-0.732,0.324-3.087-1.167-2.307c-0.279,0.142-6.878,3.551-9.347,11.226C727.475,1722.099,728.127,1722.984,728.984,1722.972
			z"/>
		<path style="fill:#E8C0A6;" d="M717.569,1721.44c0.53,0,1.026-0.328,1.216-0.855c2.49-6.911,8.107-10.628,8.163-10.664
			c1.415-0.89-0.011-3.101-1.405-2.171c-0.259,0.168-6.395,4.198-9.19,11.958C716.038,1720.529,716.695,1721.455,717.569,1721.44z"
			/>
		<path style="fill:#395B96;" d="M757.739,1726.651l-70.01-0.773c0.234,2.14,0.801,4.222,1.852,6.106l63.809,0.704
			C756.536,1732.728,758.824,1729.603,757.739,1726.651z"/>
		<path style="fill:#F99370;" d="M832.595,1673.337l-60.49,18.298c-2.876-9.684-6.427-29.944-11.798-40.337
			c0.002-0.001-6.186-35.443-6.186-35.443l26.665-8.066l7.922,46.442c0.94,5.508,5.658,9.561,11.245,9.691
			c12.444,0.867,24.495-5.002,34.331,1.508C837.049,1667.785,836.072,1672.285,832.595,1673.337z"/>
		<path style="fill:#1D3F70;" d="M768.505,1686.366c0.865,1.971,2.031,3.787,3.6,5.269l61.079-18.476
			c2.97-0.898,4.235-4.471,2.403-6.975c-4.3-5.846-15.225-12.914-43.825-5.87c0,0-9.013,5.661-25.622,7.574
			C766.14,1667.888,764.983,1678.38,768.505,1686.366z"/>
		<path style="fill:#E8C0A6;" d="M816.954,1669.466c0.481-0.151,0.85-0.581,0.899-1.115c0.568-6.199,4.094-9.11,4.244-9.231
			c1.312-1.022-0.31-3.085-1.609-2.024c-0.185,0.146-4.536,3.665-5.209,11.018C815.176,1669.014,816.102,1669.752,816.954,1669.466z
			"/>
		<path style="fill:#E8C0A6;" d="M806.987,1671.214c0.522-0.164,0.901-0.65,0.905-1.225c0.045-6.994,4.72-11.634,4.768-11.68
			c1.215-1.149-0.618-3.042-1.806-1.851c-0.224,0.219-5.496,5.451-5.547,13.513C805.285,1670.834,806.173,1671.483,806.987,1671.214
			z"/>
		<path style="fill:#E8C0A6;" d="M795.638,1673.178c0.505-0.159,0.88-0.621,0.904-1.18c0.301-7.34,4.544-12.571,4.587-12.622
			c1.083-1.273-0.941-2.955-1.992-1.649c-0.197,0.238-4.84,5.924-5.179,14.165C793.904,1672.769,794.809,1673.455,795.638,1673.178z
			"/>
		<path style="fill:#395B96;" d="M835.521,1666.094l-67.016,20.271c0.865,1.971,2.031,3.787,3.6,5.269l61.079-18.476
			C836.196,1672.253,837.442,1668.585,835.521,1666.094z"/>
		<path style="fill:#9358E0;" d="M728.582,1694.772c0,0-17.952,6.805-40.986-0.003c-2.626-57.976,9.837-174.664-79.707-172.768
			c-40.42,0.644-92.109-42.44-75.25-85.572c0,0,100.864,0.006,100.858,0.012C738.811,1459.145,737.042,1580.781,728.582,1694.772z"
			/>
		<path style="fill:#7640CC;" d="M731.281,1587.917c-19.871-65.783-34.81-69.311-88.058-59.558
			c-24.883-4.838-45.31-6.344-65.144-12.13l18.152-77.867C691.658,1430.881,731.939,1498.159,731.281,1587.917z"/>
		<path style="fill:#9358E0;" d="M795,1645c0,0-14.389,14.1-41.081,12.888c-5.365-19.497-13.007-66.135-23.821-94.595
			c-20.27-68.421-54.95-47.39-122.212-41.292c-84.539,5.562-94.586-68.244-78.323-91.581
			C718.323,1431.527,774.849,1397.561,795,1645z"/>
		<path style="fill:#3A72AA;" d="M518.272,1404.525c0.686,9.694,2.258,19.88,4.894,30.563c0,0,78.592,7.777,138.912-0.643
			c0,0-10.824-39.611-8.884-60.589c1.711-18.49,9.975-28.282,4.04-45.772c-7.543-19.853-32.156-47.401-44.466-66.916
			c-0.002-0.015-25.022-1.576-25.027-1.581C567.053,1285.136,513.302,1317.437,518.272,1404.525z"/>
		<path style="fill:#23659B;" d="M658.447,1331.944c-3.878-12.055-19.453-33.481-20.235-33.279
			c-0.308-0.359-0.269-0.901,0.089-1.211c2.004-0.924,17.443,19.537,20.986,33.45C659.407,1331.43,658.985,1331.95,658.447,1331.944
			z"/>
		<path style="fill:#F4D4BE;" d="M607.456,1293.302c-0.056,3.823,5.949,3.823,5.893,0
			C613.405,1289.479,607.4,1289.479,607.456,1293.302z"/>
		<path style="fill:#F4D4BE;" d="M610.146,1304.278c-0.056,3.823,5.949,3.823,5.893,0
			C616.095,1300.455,610.09,1300.455,610.146,1304.278z"/>
		<path style="fill:#F99370;" d="M565.351,1309.13c-16.617,13.375-54.019,41.654-41.379,64.253
			c16.108,9.195,44.903,8.803,66.614,11.891c6.258,0.439,7.14,9.891,1.174,11.539c-20.461,6.048-40.853,6.693-62.394,5.572
			c-9.74-0.704-21.238,0.275-28.697-6.933c-9.931-9.938-15.726-24.898-14.679-39.057c3.026-34.057,29.192-60.176,55.194-79.271
			C563.007,1260.386,587.528,1292.922,565.351,1309.13z"/>
		<path style="fill:#3A72AA;" d="M571.947,1402.538c3.049-0.771,6.915-2.081,9.781-2.938c0,0-4.35-7.402,2.05-14.973
			c-99.464-31.081-0.106-56.218,3.964-125.041C515.29,1232.624,391.646,1433.305,571.947,1402.538z"/>
		<path style="fill:#F99370;" d="M625.751,1398.695c0,0-6.939-21.022-35.781-13.445l-5.573,13.462L625.751,1398.695z"/>
		<path style="fill:#E57D61;" d="M624.205,1398.282c-0.855-0.026-7.745-7.383-18.022-8.454c-0.442-0.045-0.763-0.44-0.718-0.882
			C610.415,1385.771,629.317,1398.334,624.205,1398.282z"/>
		<path style="fill:#E57D61;" d="M616.45,1398.565c-7.418-2.763-8.377-3.285-13.439-4.28c-0.421-0.083-0.706-0.484-0.633-0.907
			c0.001-0.006,0.002-0.012,0.003-0.018c0.077-0.442,0.504-0.735,0.944-0.644c5.257,1.091,5.606,1.228,13.277,4.239
			C617.535,1397.148,617.4,1398.579,616.45,1398.565z"/>
		<path style="fill:#F4D4BE;" d="M628.348,1263.781c-2.841,5.044-14.631,3.164-9.033,13.755c1.606,2.923-1.834,7.579-6.508,4.969
			c-4.673-2.609-5.419-2.734-6.661-2.361c-1.242,0.373-1.367,5.591-6.461,5.094c-5.094-0.497-3.478-8.294-6.46-10.421
			c-2.982-2.127-9.737,4.581-15.118-1.383c0,0-3.595-5.052,2.346-11.719c2.424-4.059,27.991-0.385,32.31-0.554
			C612.763,1261.161,619.366,1259.554,628.348,1263.781z"/>
		<path style="fill:#F99370;" d="M613.356,1248.538l-0.593,12.623l-6.491,13.592l-18.532-15.167c0,0,1.152-8.492,0.688-12.066
			L613.356,1248.538z"/>
		<path style="fill:#E57D61;" d="M613.069,1254.648c-5.288,0.06-16.404-1.382-24.641-7.128c0.145-0.742,0.279-1.508,0.408-2.282
			c1.608-7.37,2.064-13.975,2.32-18.225c0.246-8.011-0.609-11.195,4.792-16.025c7.182-6.112,19.375-1.389,20.354,8.155
			C616.815,1223.707,614.177,1237.437,613.069,1254.648z"/>
		<path style="fill:#F99370;" d="M630.273,1244.139c-10.096,6.958-23.572,6.839-33.547,2.584c-0.565-0.243-1.141-0.485-1.677-0.753
			c-21.403-10.407-21.019-46.262-8.227-62.839c8.002-11.315,25.185-15.796,36.563-7.124c7.859,6.364,9.439,15.947,11.523,26.112
			c0.698,2.676,2.337,6.309,4.129,8.914C645.87,1221.26,643.263,1234.706,630.273,1244.139z"/>
		<path style="fill:#E57D61;" d="M605.847,1193.508c-19.256,2.352-20.059,17.397-20.059,17.397l-5.696-9.041l20.623-24.619
			l16.616-4.488c3.704,1.213,6.859,3.459,9.324,6.497C626.654,1179.254,625.103,1191.156,605.847,1193.508z"/>
		<path style="fill:#C16256;" d="M619.496,1208.482c1.315-1.636-1.284-3.664-2.55-1.99
			C615.63,1208.128,618.229,1210.156,619.496,1208.482z"/>
		<path style="fill:#C16256;" d="M633.281,1208.841c1.315-1.636-1.284-3.664-2.551-1.99
			C629.415,1208.487,632.014,1210.515,633.281,1208.841z"/>
		<path style="fill:#C16256;" d="M627.092,1221.811c-1.133-0.117-3.753-0.093-3.506-1.573c0.163-0.296,0.535-0.404,0.831-0.242
			c1.884,1.111,7.06,0.664,4.988-1.232c-3.037-2.35-5.553-12.675-2.906-9.869c0.01,0.067,1.003,6.716,3.684,8.924
			C632.934,1220.602,629.693,1221.735,627.092,1221.811z"/>
		<path style="fill:#662948;" d="M623.382,1176.009c0.448-17.032-32.612-52.222-66.751-13.752
			c-23.633,29.198-76.741,56.071-46.899,82.3c2.369,2.082,5.059,3.751,7.837,5.244c12.307,6.613-1.883,19.248,7.057,28.974
			c9.446,10.276,25.658,5.423,22.594,25.053c-3.064,19.63,8.42,26.489,22.133,27.998c13.713,1.509,36.495-31.913,23.38-47.446
			c-13.114-15.534,1.928-23.117-2.293-41.159c-4.222-18.042-12.14-22.702-12.14-22.702l6.098-14.902
			C588.543,1186.178,621.009,1194.239,623.382,1176.009z"/>
		<path style="fill:#23659B;" d="M575.003,1401.681c2.269-0.677,4.753-1.49,6.725-2.082c0,0-4.201-7.585,2.198-15.156
			c0,0-4.257-1.469-8.831-2.691C575.095,1381.753,568.216,1392.027,575.003,1401.681z"/>
		<path style="fill:#23659B;" d="M576.199,1383.788c-17.512-6.247-55.772-20.87-27.54-50.987c0.749-0.812,2.022,0.344,1.26,1.163
			c-0.173,0.188-17.204,18.926-6.05,29.668C556.729,1377.406,581.122,1381.762,576.199,1383.788z"/>
		<path style="fill:#23659B;" d="M561.784,1405.114c-0.999,0.026-1.168-1.529-0.164-1.7c7.235-1.417,13.79-3.732,13.855-3.755
			C580.313,1400.927,569.198,1403.552,561.784,1405.114z"/>
		<path style="fill:#C16256;" d="M611.455,1204.307c-0.224,0-0.442-0.117-0.559-0.327c-0.174-0.309-0.064-0.699,0.244-0.873
			c0.223-0.125,5.514-3.051,10.928-1.811c0.345,0.079,0.56,0.423,0.482,0.768c-0.079,0.345-0.421,0.559-0.768,0.481
			c-4.936-1.131-9.963,1.65-10.014,1.678C611.669,1204.28,611.561,1204.307,611.455,1204.307z"/>
		<path style="fill:#C16256;" d="M635.055,1203.292c-0.104,0-0.209-0.025-0.306-0.078c-2.266-1.234-5.313-0.946-5.343-0.942
			c-0.35,0.041-0.666-0.222-0.701-0.574c-0.036-0.352,0.221-0.666,0.573-0.702c0.14-0.015,3.474-0.33,6.085,1.092
			c0.31,0.169,0.425,0.558,0.256,0.869C635.503,1203.171,635.282,1203.292,635.055,1203.292z"/>
		<path style="fill:#C16256;" d="M624.801,1227.507c-5.447,0-8.475-3.82-8.62-4.007c-0.217-0.28-0.165-0.682,0.115-0.899
			c0.28-0.216,0.682-0.165,0.899,0.114c0.158,0.203,3.727,4.645,10.066,3.231c0.348-0.075,0.688,0.141,0.765,0.486
			c0.077,0.346-0.141,0.688-0.486,0.765C626.569,1227.413,625.655,1227.507,624.801,1227.507z"/>
		<path style="fill:#F99370;" d="M573.942,1216.027c2.641,12.008,17.006,9.077,14.733-3.005
			C586.033,1201.013,571.669,1203.945,573.942,1216.027z"/>
		<path style="fill:#C16256;" d="M577.832,1218.514c0.349-0.064,0.571-0.424,0.467-0.764c-2.177-6.478,0.483-8.983,4.881-7.231
			c0.719,0.301,1.177-0.842,0.447-1.119c-5.005-2.088-9.148,1.062-6.482,8.694C577.234,1218.391,577.533,1218.57,577.832,1218.514z"
			/>
		<path style="fill:#C16256;" d="M583.462,1217.711c1.572-0.337-1.75-5.88-6.335-6.266c-0.331-0.023-0.621,0.225-0.645,0.557
			c-0.024,0.332,0.225,0.621,0.557,0.645C581.825,1213.168,582.14,1217.687,583.462,1217.711z"/>
		<path style="fill:#F4D4BE;" d="M583.996,1223.106c0,1.485-1.204,2.689-2.689,2.689c-1.485,0-2.689-1.204-2.689-2.689
			c0-1.485,1.204-2.689,2.689-2.689C582.793,1220.417,583.996,1221.621,583.996,1223.106z"/>
		
			<rect x="729.627" y="1352.73" transform="matrix(-1 -6.105038e-05 6.105038e-05 -1 1516.4991 2757.5994)" style="fill:#0B274F;" width="57.33" height="52.093"/>
		
			<rect x="738.002" y="1352.73" transform="matrix(-1 -6.128114e-05 6.128114e-05 -1 1524.8739 2757.6003)" style="fill:#163260;" width="48.955" height="52.093"/>
		<polygon style="fill:#0B274F;" points="735.567,1384.188 786.956,1384.191 786.958,1352.731 738.003,1352.729 		"/>
		
			<rect x="584.397" y="1398.454" transform="matrix(-1 -6.202977e-05 6.202977e-05 -1 1318.6345 2803.988)" style="fill:#0B274F;" width="149.928" height="7.04"/>
		
			<rect x="714.631" y="1398.46" transform="matrix(-1 -6.243092e-05 6.243092e-05 -1 1526.8823 2804.0078)" style="fill:#163260;" width="97.708" height="7.04"/>
		<polygon style="fill:#163260;" points="861.836,1378.783 653.401,1378.77 681.383,1225.989 888.559,1226.002 		"/>
		<polygon style="fill:#0B274F;" points="684.516,1225.989 677.058,1225.988 649.726,1378.77 656.044,1378.77 		"/>
		<rect x="446.718" y="1417.907" style="fill:#4867AA;" width="408.64" height="26.352"/>
		<polygon style="fill:#395B96;" points="885.553,1405.077 413.845,1405.048 413.844,1418.86 439.327,1418.862 439.308,1732.669 
			454.091,1732.67 454.111,1418.863 845.285,1418.887 845.266,1732.695 860.049,1732.696 860.069,1418.888 885.552,1418.889 		"/>
	</g>
	<g id="_x31_">
		<path style="fill:#EB5648;" d="M1382,1436c0,0-30.614,6.253-50.545,30.287c-19.931,24.034-59.33,104.62,4.042,123.387
			l31.424-34.578c0,0-9.379-7.914-4.397-34.586C1367.507,1493.839,1390.041,1454.438,1382,1436z"/>
		<path style="fill:#EB5648;" d="M1438,1436c0,0,31.475,6.253,51.406,30.287c19.931,24.034,59.33,104.62-4.042,123.387
			l-31.423-34.578c0,0,9.379-7.914,4.397-34.586C1453.354,1493.839,1429.959,1454.438,1438,1436z"/>
		<path style="fill:#EB5648;" d="M1485.052,1589.256c-46.949,21.028-102.534,21.329-149.556,0.418
			c-2.06-23.785,6.108-31.45,10.054-57.954c8.568-57.544,31.169-93.892,31.169-93.892c18.335-7.288,49.305-8.129,67.059,0.468
			c0,0,25.763,38.207,29.091,90.589C1474.498,1554.51,1485.052,1566.209,1485.052,1589.256z"/>
		<path style="fill:#CE3932;" d="M1392.309,1433.641c0,0,2.496,15.879,18.126,15.403s17.506-15.55,17.506-15.55
			S1412.094,1428.483,1392.309,1433.641z"/>
		<path style="fill:#F99370;" d="M1410.275,1443.024L1410.275,1443.024c-6.232,0-11.284-5.052-11.284-11.284v-15.365h22.568v15.365
			C1421.558,1437.973,1416.507,1443.024,1410.275,1443.024z"/>
		<path style="fill:#F99370;" d="M1449.524,1385.2c-2.848,13.157-18.912,9.76-16.192-3.423
			C1436.181,1368.621,1452.245,1372.017,1449.524,1385.2z"/>
		<path style="fill:#F99370;" d="M1371.025,1385.2c2.848,13.157,18.912,9.76,16.191-3.423
			C1384.369,1368.621,1368.304,1372.017,1371.025,1385.2z"/>
		<path style="fill:#F99370;" d="M1443.296,1399.413c-1.832,44.054-72.484,37.596-65.513-6.644
			c0.964-8.774,4.106-14.608,5.579-28.594c3.41-32.372,49.412-34.095,53.547-0.242
			C1438.534,1377.287,1443.399,1387.132,1443.296,1399.413z"/>
		<path style="fill:#C16256;" d="M1408.737,1393.358c-3.208-0.038-8.195-2.201-4.14-5.052c3.313-1.794,5.744-8.655,5.768-8.724
			c0.268-0.813,1.549-0.374,1.251,0.438c-0.106,0.302-2.629,7.417-6.387,9.453c-2.598,1.591,2.816,3.132,5.048,2.345
			c0.351-0.112,0.722,0.08,0.834,0.429C1411.301,1393.437,1409.567,1393.269,1408.737,1393.358z"/>
		<path style="fill:#E57D61;" d="M1388.637,1362.121c15.894,7.381,34.127-16.653,43.861-5.633l1.192-6.732l-18.533-8.694
			l-29.577,10.296L1388.637,1362.121z"/>
		<path style="fill:#8C4225;" d="M1438.855,1374.131c0,0-5.542-10.628-6.356-17.642c-0.814-7.014-10.234-8.237-17.972-2.746
			c-7.738,5.491-17.394,7.987-27.542,4.243c-10.148-3.744-16.715-19.13-6.391-28.206c10.221-8.986,20.853-1.984,30.048,1.498
			C1422.507,1335.771,1452.32,1326.708,1438.855,1374.131z"/>
		<path style="fill:#8C4225;" d="M1382.017,1373.626c0,0,8.297-9.399,8.796-21.88l-8.885-3.495
			C1381.929,1348.251,1378.308,1360.394,1382.017,1373.626z"/>
		<path style="fill:#C16256;" d="M1446.161,1387.824c-0.427,0.005-0.751-0.429-0.619-0.837c2.268-6.464-0.085-9.768-5.19-7.811
			c-0.774,0.322-1.261-0.913-0.472-1.206c5.395-2.207,9.825,1.212,6.9,9.396C1446.695,1387.644,1446.439,1387.824,1446.161,1387.824
			z"/>
		<path style="fill:#C16256;" d="M1440.86,1386.254c-2.012-0.161,1.078-5.702,5.99-6.034c0.354-0.018,0.376,0.268,0.399,0.625
			c0.024,0.357,0.043,0.644-0.313,0.668C1441.911,1382.032,1442.049,1386.086,1440.86,1386.254z"/>
		<path style="fill:#CE3932;" d="M1361.025,1471.648c0,0-13.839,20.334-19.702,50.426h5.827
			C1347.15,1522.074,1351.777,1500.19,1361.025,1471.648z"/>
		<path style="fill:#CE3932;" d="M1460.179,1471.648c0,0,13.728,19.748,20.63,50.426h-8.504
			C1472.306,1522.074,1471.949,1507.517,1460.179,1471.648z"/>
		<path style="fill:#C16256;" d="M1374.796,1387.824c-0.277,0-0.534-0.18-0.619-0.459c-2.928-8.187,1.517-11.601,6.902-9.395
			c0.783,0.297,0.307,1.521-0.472,1.206c-4.62-1.896-7.635,0.977-5.191,7.811C1375.548,1387.394,1375.222,1387.83,1374.796,1387.824
			z"/>
		<path style="fill:#C16256;" d="M1380.843,1386.918c-1.175-0.155-1.823-4.897-6.821-5.406c-0.357-0.024-0.275-0.31-0.252-0.668
			c0.024-0.357-0.012-0.647,0.338-0.625C1379.019,1380.554,1382.852,1386.751,1380.843,1386.918z"/>
		<path style="fill:#8C4225;" d="M1443.298,1393.197c-2.169-13.333-4.302-18.879-7.302-27.199
			c1.137,9.658,12.607,43.896-7.782,33.039c-12.601-6.698-26.116-3.7-37.401,1.647c-5.313,1.99-10.775,1.625-10.078-6.304
			c0.532-6.057,1.121-15.464,3.346-26.18c-2.668,4.165-3.794,15.463-6.299,24.571c0,0,0-0.001,0-0.001
			C1370.304,1442.243,1448.806,1443.316,1443.298,1393.197z M1420.698,1419.401c-6.518,0.191-5.464-8.734-10.38-8.609
			c-3.954,0.1-3.323,13.477-15.678,8.235c-5.93-2.461-6.56-10.619-1.236-14.209c4.606-3.112,10.809-5.512,16.992-5.757
			c5.851-0.232,11.675,1.259,16.356,3.758C1435.91,1408.346,1429.059,1419.112,1420.698,1419.401z"/>
		<path style="fill:#C16256;" d="M1408.862,1405.299c-1.854,0-3.174-0.264-3.295-0.289c-0.328-0.068-0.538-0.388-0.47-0.716
			c0.068-0.328,0.389-0.54,0.716-0.471c0.063,0.013,6.375,1.264,10.802-1.941c0.271-0.195,0.65-0.135,0.847,0.136
			c0.196,0.271,0.135,0.65-0.136,0.847C1414.576,1404.854,1411.269,1405.299,1408.862,1405.299z"/>
		<path style="fill:#C16256;" d="M1427.992,1372.411c-0.069,0-0.14-0.012-0.209-0.037c-5.391-1.976-11.212-1.639-11.271-1.636
			c-0.331,0.025-0.622-0.233-0.643-0.567c-0.021-0.334,0.233-0.622,0.568-0.643c0.248-0.015,6.137-0.355,11.764,1.708
			c0.314,0.115,0.475,0.463,0.36,0.778C1428.471,1372.259,1428.239,1372.411,1427.992,1372.411z"/>
		<path style="fill:#C16256;" d="M1392.899,1372.411c-0.247,0-0.479-0.152-0.569-0.398c-0.115-0.314,0.046-0.663,0.36-0.778
			c5.628-2.064,11.515-1.723,11.764-1.708c0.334,0.021,0.588,0.309,0.567,0.643c-0.021,0.334-0.312,0.589-0.643,0.567
			c-0.059-0.004-5.89-0.337-11.271,1.636C1393.039,1372.399,1392.969,1372.411,1392.899,1372.411z"/>
		<path style="fill:#F99370;" d="M1348.673,1677.458c0,0-12.328,13.17-19.813,16.457c-10.037,4.408-34.291,11.72-39.254,13.241
			c-13.553,4.155-12.35,17.078,5.599,15.247c22.768-1.177,55.237-2.439,70.477-17.3
			C1386.153,1694.084,1367.794,1664.181,1348.673,1677.458z"/>
		<path style="fill:#F99370;" d="M1470.44,1677.458c0,0,12.328,13.17,19.813,16.457c10.037,4.408,34.291,11.72,39.254,13.241
			c13.553,4.155,12.35,17.078-5.599,15.247c-22.768-1.177-55.237-2.439-70.477-17.3
			C1432.96,1694.084,1451.319,1664.181,1470.44,1677.458z"/>
		<path style="fill:#23659B;" d="M1281.726,1584.656c0,0,26.965-1.421,52.033,4.56c35.787,8.538,76.539,13.833,153.693-1.331
			c24.651-4.845,53.778-2.907,53.778-2.907c-14.173,10.011-27.755,18.992-40.931,26.729
			C1425.668,1655.529,1364.048,1659.454,1281.726,1584.656z"/>
		<path style="fill:#163260;" d="M1333.759,1610.348h153.952v-90.017c0-2.038-1.652-3.691-3.691-3.691h-146.57
			c-2.038,0-3.691,1.653-3.691,3.691V1610.348z"/>
		<path style="fill:#3A72AA;" d="M1461.375,1714.344c-345.297-61.322-233.975-233.853,17.386-40.863
			C1482.688,1698.861,1461.375,1714.344,1461.375,1714.344z"/>
		<path style="fill:#23659B;" d="M1461.375,1714.344c-0.384,0.012-4.224-0.665-10.629-1.979c0,0,23.177-15.58,20.319-44.211
			c4.933,3.359,7.697,5.327,7.697,5.327C1482.688,1698.861,1461.375,1714.344,1461.375,1714.344z"/>
		<path style="fill:#23659B;" d="M1475.539,1676.801l-8.511,15.615l-46.182,13.781c0,0-7.819-1.699-11.769-2.712L1475.539,1676.801z
			"/>
		<path style="fill:#3A72AA;" d="M1368.395,1712.604c-5.7,1.158-9.098,1.752-9.458,1.74c0,0-21.313-15.483-17.386-40.863
			C1589.972,1482.122,1700.923,1650.875,1368.395,1712.604z"/>
		<path style="fill:#23659B;" d="M1368.395,1712.604c-5.7,1.158-9.098,1.752-9.458,1.74c0,0-21.313-15.483-17.386-40.863
			c0,0,2.745-2.37,7.861-5.44C1349.411,1668.041,1347.818,1694.689,1368.395,1712.604z"/>
		<path style="fill:#23659B;" d="M1345.662,1673.752c-0.331,0-0.661-0.141-0.891-0.413c-0.416-0.492-0.354-1.228,0.138-1.644
			c0.38-0.322,38.404-32.354,69.277-49.366c0.564-0.31,1.273-0.106,1.585,0.458c0.311,0.564,0.105,1.274-0.459,1.585
			c-30.673,16.901-68.519,48.784-68.898,49.104C1346.196,1673.661,1345.928,1673.752,1345.662,1673.752z"/>
		<path style="fill:#C16256;" d="M1418.962,1380.938c-0.433-0.852-0.093-1.893,0.759-2.326c0.852-0.433,1.893-0.093,2.326,0.759
			c0.433,0.852,0.093,1.893-0.759,2.325C1420.435,1382.129,1419.394,1381.789,1418.962,1380.938z"/>
		<path style="fill:#C16256;" d="M1398.227,1380.978c-0.432-0.852-0.093-1.893,0.759-2.326c0.852-0.433,1.893-0.093,2.325,0.759
			c0.433,0.852,0.093,1.893-0.759,2.326C1399.701,1382.169,1398.66,1381.829,1398.227,1380.978z"/>
		<path style="fill:#1D3F70;" d="M1278.637,1719.697L1278.637,1719.697c-2.579-9.187,2.777-18.724,11.964-21.304l46.484-10.008
			c0,0,0.667,14.381,12.105,26.383l-49.249,16.893C1290.754,1734.239,1281.216,1728.883,1278.637,1719.697z"/>
		<path style="fill:#E8C0A6;" d="M1301.341,1725.708c-0.069-0.005-0.139-0.015-0.209-0.028c-0.887-0.177-1.464-1.039-1.287-1.927
			c2.058-10.344-5.522-17.139-5.845-17.423c-0.679-0.596-0.749-1.63-0.154-2.311c0.594-0.681,1.626-0.752,2.307-0.16
			c0.383,0.333,9.343,8.288,6.906,20.534C1302.896,1725.21,1302.151,1725.764,1301.341,1725.708z"/>
		<path style="fill:#E8C0A6;" d="M1313.228,1720.911c-0.07-0.005-0.139-0.015-0.209-0.028c-0.887-0.177-1.464-1.04-1.287-1.927
			c2.031-10.207-4.723-15.199-5.011-15.407c-0.732-0.526-0.905-1.548-0.381-2.283c0.524-0.735,1.541-0.911,2.276-0.39
			c0.36,0.254,8.788,6.365,6.329,18.719C1314.783,1720.413,1314.038,1720.967,1313.228,1720.911z"/>
		<path style="fill:#E8C0A6;" d="M1325.703,1716.173c-0.052-0.004-0.103-0.01-0.155-0.019c-0.893-0.146-1.498-0.99-1.351-1.882
			c1.643-10.003-4.047-13.596-4.29-13.744c-0.768-0.469-1.021-1.472-0.559-2.244c0.463-0.772,1.453-1.031,2.23-0.575
			c0.323,0.189,7.875,4.781,5.853,17.094C1327.292,1715.645,1326.537,1716.231,1325.703,1716.173z"/>
		<path style="fill:#1D3F70;" d="M1538.653,1720.394L1538.653,1720.394c2.75-9.137-2.428-18.773-11.564-21.523l-46.011-11.283
			c0,0,0.59,15.423-11.069,27.209l47.122,17.161C1526.267,1734.708,1535.903,1729.53,1538.653,1720.394z"/>
		<path style="fill:#E8C0A6;" d="M1515.84,1725.981c0.07-0.004,0.14-0.012,0.21-0.025c0.891-0.16,1.483-1.012,1.323-1.902
			c-1.865-10.381,5.84-17.033,6.169-17.311c0.69-0.583,0.779-1.616,0.198-2.307c-0.581-0.692-1.612-0.783-2.304-0.203
			c-0.389,0.326-9.496,8.113-7.288,20.401C1514.295,1725.454,1515.029,1726.021,1515.84,1725.981z"/>
		<path style="fill:#E8C0A6;" d="M1504.045,1720.963c0.07-0.003,0.14-0.012,0.21-0.025c0.89-0.16,1.483-1.012,1.323-1.902
			c-1.841-10.244,5.005-15.108,5.297-15.311c0.742-0.513,0.933-1.531,0.424-2.276c-0.51-0.744-1.524-0.94-2.269-0.432
			c-0.365,0.247-8.905,6.2-6.677,18.598C1502.499,1720.437,1503.234,1721.004,1504.045,1720.963z"/>
		<path style="fill:#E8C0A6;" d="M1491.66,1715.994c0.052-0.002,0.103-0.008,0.156-0.016c0.895-0.129,1.516-0.961,1.386-1.856
			c-1.456-10.032,4.299-13.518,4.545-13.662c0.777-0.454,1.048-1.453,0.601-2.233c-0.448-0.781-1.433-1.058-2.219-0.616
			c-0.326,0.183-7.962,4.633-6.17,16.982C1490.081,1715.436,1490.826,1716.036,1491.66,1715.994z"/>
	</g>
</g>
</svg>
